<?xml version="1.0" encoding="UTF-8"?>
<svg viewBox="0 0 375 375" xmlns="http://www.w3.org/2000/svg" xmlns:xlink="http://www.w3.org/1999/xlink">
 <defs>
  <linearGradient id="q" x1=".97457" x2=".059322" y1=".9374" y2="-.039063" xlink:href="#a"/>
  <linearGradient id="t" x1=".18015" x2=".73897" y1=".092105" y2=".76316" xlink:href="#m"/>
  <linearGradient id="s" x1=".13603" x2="1.0147" y1=".47126" y2=".41379" xlink:href="#a"/>
  <linearGradient id="r" x1=".05147" x2=".87868" y1=".39506" y2=".23457" xlink:href="#a"/>
  <linearGradient id="n" x1=".10294" x2=".76838" y1=".83133" y2=".12048" xlink:href="#a"/>
  <linearGradient id="m">
   <stop stop-color="#3f0000" offset="0"/>
   <stop stop-color="#bf7f3f" offset="1"/>
  </linearGradient>
  <linearGradient id="p" x1=".1103" x2=".84191" y1=".75758" y2=".43434" xlink:href="#a"/>
  <linearGradient id="a">
   <stop stop-color="#260000" offset="0"/>
   <stop stop-color="#4d2500" offset="1"/>
  </linearGradient>
  <radialGradient id="v" cx=".24609" cy=".7777">
   <stop stop-color="#ff0" offset="0"/>
   <stop stop-color="#ffa" stop-opacity=".996" offset="1"/>
  </radialGradient>
  <radialGradient id="u" cx=".042373" cy=".96875" r="1.909" xlink:href="#m"/>
  <radialGradient id="w" cx=".50781" cy=".51598">
   <stop stop-color="#ff0" offset="0"/>
   <stop stop-color="#fcfc8d" stop-opacity=".992" offset="1"/>
  </radialGradient>
  <radialGradient id="o" cx=".95" cy=".92188" r="1.494" xlink:href="#a"/>
 </defs>
 <g fill-rule="evenodd">
  <g fill="#fff3e6" fill-opacity=".758" stroke="#ffe6cc" stroke-width=".881">
   <path d="m177.26 337.09c-38.819 4.068-51.077 10.013-57.722 19.923-42.373-54.787-92.167-209.7-98.991-227.74 22.375 4.1462 101.75-38.499 152.66-36.293 1.2017 102.09 1.298 167.06 4.0565 244.11z"/>
   <path d="m163.22 303.25c-39.025 0.7099-51.75 5.5772-59.224 14.878-37.497-58.233-73.766-216.86-79.012-235.42 21.935 6.0576 104.69-29.594 155.22-23.012-7.5938 101.81-13.093 166.56-16.98 243.55z"/>
  </g>
  <path d="m88.301 9.5952c15.289 20.282 89.689 36.913 174.78 12.68-41.334 40.67-135.37 43.853-171.58 27.157-5.2478-13.654-8.3029-21.278-3.2002-39.836z" fill="url(#t)" stroke-width="1.25"/>
  <path d="m142.21 30.382c1.6261-4.8115-34.143-2.0001-43.657-16.702-7.7618-12.511-25.812-12.916-23.448 6.395 1.7971 14.283-9.469 43.331-3.6934 47.788 10.42 7.7254 14.734-27.429 27.576-33.179 19.012-7.9957 39.943 4.3584 43.222-4.3022z" fill="url(#o)" stroke-width="1.097"/>
  <g fill="#fff3e6" fill-opacity=".758" stroke="#ffe6cc" stroke-width="1.101">
   <path d="m77.442 14.249c15.288 20.282 89.689 36.913 174.78 12.68-41.334 40.67-135.37 43.853-171.58 27.157-5.2478-13.654-8.3029-21.278-3.2002-39.836h1.5e-5z"/>
   <path d="m68.134 17.869c15.289 20.282 89.689 36.913 174.78 12.68-41.334 40.67-135.37 43.853-171.58 27.157-5.2478-13.654-8.3029-21.278-3.2002-39.836z"/>
   <path d="m58.826 21.489c15.288 20.282 89.689 36.913 174.78 12.68-41.334 40.67-135.37 43.853-171.58 27.157-5.2478-13.654-8.3029-21.278-3.2002-39.836z"/>
   <path d="m52.62 25.108c15.289 20.282 89.689 36.913 174.78 12.68-41.334 40.67-135.37 43.853-171.58 27.157-5.2478-13.654-8.3029-21.278-3.2002-39.836h8e-6z"/>
  </g>
  <g stroke-width="1.25">
   <path d="m33.899 43.712c102.43 7.0947 169.4 1.7529 216.63-19.86 17.8-19.72 69.906-3.9886 82.159 10.537 16.13 17.602 13.007 319.45-4.0805 320.06-2.0685 7.1065-83.549 29.138-84.957 7.6258-53.89-17.099-159.34-27.622-214.9-11.295 13.85-60.748 31.277-236.86 5.1476-307.07v-2.3e-5h8e-6z" fill="url(#u)"/>
   <g fill="#3f7f00">
    <path d="m252.56 26.974c29.027 27.182 28.431 222.12-4.252 334.02-277.27-66.312-204.54 58.258-196.93-167.6 8.7527-258.4-41.534-75.933 201.18-166.42z"/>
    <path d="m229.98 38.63c-51.502 25.01-157.24 14.955-156.45 70.112 0.8409 57.37 177.49 23.083 174.91-3.957-4.537-32.267-173.86 25.359-176.69 93.837-2.2303 54.752 158.32 109.29 168.42 87.611 21.449-47.819-170.12-56.94-174.01 9.755-3.0771 54.248 83.191 43.068 154.81 47.35 53.277 2.641 59.734-328.62 9.013-304.71z"/>
   </g>
  </g>
  <path d="m103.96 46.05c-0.419-9.2554-31.518 0.2689-49.2-10.082-17.34-9.6342-37.98 10.657-23.67 26.218 11.231 12.716 5.6703 52.926 13.8 55.339 14.529 4.007 3.3527-36.704 14.821-48.223 17.002-16.357 44.742-12.349 44.249-23.253z" fill="url(#o)" stroke-width="1.279"/>
  <path d="m40.758 288.17c-4.3531-19.004-18.218 61.106-12.584 63.944 4.6486 2.3415 48.473-8.4507 57.777-8.1437 17.465 0.02121-27.456-9.5512-33.876-18.882-7.5698-10.52-8.0524-24.192-11.318-36.919z" fill="url(#q)" stroke-width=".881"/>
  <path d="m244.78 359.29c-10.507 20.6 82.601 7.4665 85.861-8.6276 15.693-81.075 11.674-300.82 0.83249-311.6-17.891-16.669-88.429-26.127-83.876-7.0836 39.76 28.817 16.931 287.86-2.8171 327.31v-6.1e-5z" fill="#3f7f00" stroke-width="1.25"/>
  <path d="m246.13 352.18c15.063 13.255 70.745 9.6006 86.484-8.1887 2.4133-3.5199 11.203 6.4116-3.6775 14.158-14.311 8.1705-67.744 24.42-85.134 9.3073-5.2928-5.2679-1.1713-18.512 2.3269-15.276z" fill="url(#s)"/>
  <path d="m251.85 33.793c21.933-17.54 62.215-6.7122 76.432 7.3026 7.9624 7.5096 16.763 4.1793 4.716-10.31-13.899-15.918-66.298-30.023-84.017-9.7536-8.3825 9.2243-5.0218 19.344 2.8691 12.761z" fill="url(#p)"/>
  <path d="m259.02 302.37c18.902 11.829 68.847 4.4754 79.721-4.1754 6.7881-5.8566 7.2884-19.559-0.10919-16.116-17.98 9.0994-52.663 15.473-80.142 7.5577-4.1558-0.4762-10.371 5.6376 0.52988 12.734z" fill="url(#r)"/>
  <path d="m269.75 100.78c16.381-4.2348 59.431-4.8617 71.065 8.6371 3.7467 4.3476 8.3815-6.6958 3.4816-13.508-10.058-13.983-58.981-12.005-74.637-6.5644-9.599 3.4777-7.4221 13.452 0.090302 11.435z" fill="url(#n)"/>
  <g fill="#d0dd68" fill-opacity=".25" stroke-width="1.25">
   <path d="m38.193 290.45c-6.212 23.365-14.232 57.286-8.1992 60.108 7.28 3.2474 2.8144-30.017 8.1992-60.108z"/>
   <path d="m47.463 35.268c-18.08-4.1428-21.484 23.566-12.25 14.949 11.274-10.139 42.049 6.7956 63.476-6.2948-35.845 3.0896-46.084-7.4037-51.226-8.6545z"/>
  </g>
  <path transform="rotate(88.482 254.12 195.12)" d="m108.11 198.88c68.163-5.3791 247.29-6.1755 295.7 10.971 15.59 5.5225 34.876-8.5052 14.487-17.158-41.853-17.761-245.42-15.249-310.57-8.3383-39.942 4.4174-30.884 17.087 0.37572 14.525h8e-6z" fill="url(#n)"/>
 </g>
 <g transform="rotate(89.341 307.42 195)">
  <g transform="scale(.16626)">
   <path d="m1956.9 1313.7c-9.7562-4.252-13.732-9.1639-17.359-21.448-1.6092-5.4501-4.0669-9.8616-5.4616-9.8034-1.3946 0.058228-8.8027 2.8776-16.462 6.265-27.635 12.222-66.179 15.784-82.43 7.6193-20.235-10.166-30.783-32.89-28.195-60.736 1.6073-17.295 1.5377-17.559-6.9003-26.248-8.804-9.0652-32.101-22.97-32.101-19.159 0 1.1846 1.7116 3.5743 3.8036 5.3106 5.6467 4.6864 4.88 24.828-1.3329 35.019-6.2006 10.17-12.903 13.053-51.081 21.97-16.276 3.8015-32.134 8.7946-35.241 11.096-3.1069 2.3009-15.575 13.99-27.706 25.976-14.668 14.492-24.648 22.311-29.789 23.339-12.494 2.4988-25.09-0.7854-32.441-8.4579-5.9215-6.1808-6.7721-9.0885-6.5832-22.506 0.14221-10.103 1.9833-18.87 5.3469-25.464 2.8215-5.5306 5.13-11.285 5.13-12.787 0-4.4992-27.833 15.947-48.178 35.393-19.556 18.691-33.874 27.993-43.088 27.993-9.8099 0-22.711-7.2717-27.847-15.696-9.8439-16.146-6.2228-37.952 10.287-61.948 7.856-11.418 7.9741-11.982 3.9447-18.803-6.7092-11.358-4.7949-51.739 3.3015-69.642 1.2614-2.7893 4.3346-10.777 6.8296-17.75 5.3084-14.837 11.034-26.541 11.056-22.6 0.008545 1.5162-3.4067 14.068-7.5896 27.893-9.448 31.227-11.672 48.324-7.8098 60.028 4.4592 13.512 15.848 14.723 21.103 2.2439 2.5608-6.0813 2.9106-6.2228 3.7485-1.5162 1.208 6.7848-11.483 29.388-17.364 30.926-5.1504 1.3468-17.095 18.873-24.923 36.569-4.595 10.388-4.8352 12.926-2.0294 21.44 1.8988 5.7621 5.9498 11.208 10.043 13.501 6.3876 3.5786 7.7852 3.3895 20.286-2.7438 13.032-6.394 43.29-29.679 64.33-49.504 9.7017-9.1417 28.984-20.373 44.819-26.105 5.6032-2.0282 6.9733-4.0983 6.9733-10.536 0-8.3624-3.8348-33.965-7.8159-52.18-1.5371-7.0338-1.3904-13.028 0.43469-17.75l2.7556-7.1304 4.2146 7.8171c12.159 22.552 13.828 26.51 11.929 28.285-1.1382 1.0635-2.5789 0.5072-3.2014-1.2361-1.2046-3.3728-8.3778-4.4782-8.2275-1.2678 0.049072 1.0459 1.6758 9.3048 3.6151 18.353 3.7345 17.424 10.966 26.47 28.816 36.047 6.2839 3.3713 8.0513 5.9824 8.0513 11.895 0 10.033-2.4745 11.102-15.263 6.5896-13.55-4.7808-20.223-4.7654-32.319 0.074585-7.899 3.1606-11.074 6.7252-17.506 19.652-10.151 20.401-11.85 28.3-8.3622 38.869 3.2113 9.7306 10.091 12.664 23.71 10.109 6.1062-1.1454 13.895-6.9512 27.275-20.332 19.22-19.22 39.878-34.616 54.828-40.863 4.6547-1.945 17.249-5.3191 27.988-7.4983 42.145-8.5524 48.859-12.931 39.756-25.927-10.679-15.246-62.569-57.856-77.285-63.463-9.5599-3.6425-32.624-21.853-33.953-26.809-2.3074-8.6023-1.6516-17.679 1.7125-23.704 6.0355-10.81 42.444-26.439 104.51-44.862 16.942-5.029 49.143-10.957 71.171-13.102 14.973-1.4578 18.623-1.043 22.188 2.522 5.5673 5.5674 5.3906 11.892-0.63159 22.614-7.6578 13.634-12.818 18.834-31.87 32.119-9.7624 6.807-19.907 15.272-22.543 18.81-4.8927 6.5676-9.1537 8.4069-9.1537 3.9512 0-3.505 27.822-30.482 31.437-30.482 1.6423 0 8.6484-5.7765 15.569-12.837 12.068-12.312 12.382-12.986 7.6611-16.482-2.7072-2.0051-10.137-3.6455-16.511-3.6455-11.37 0-63.783 9.9299-81.264 15.396-4.8812 1.5264-12.298 3.7229-16.482 4.8814-4.184 1.1584-13.867 4.4871-21.518 7.3967-7.6509 2.9098-16.209 5.3802-19.018 5.4899-6.9206 0.27002-27.765 13.194-28.573 17.716-0.3728 2.0854 4.9675 6.8846 12.513 11.245 26.644 15.397 42.88 23.772 51.775 26.708 10.668 3.5209 52.356 31.931 69.642 47.462 13.431 12.067 20.484 13.508 24.812 5.0714 2.536-4.944 2.7388-4.3358 1.5195 4.5564-1.3718 10.004-1.1018 10.457 10.773 18.05 6.6992 4.2837 14.673 9.0797 17.719 10.658 7.0685 3.6624 22.414 3.6948 29.202 0.061768 4.8417-2.5912 5.1207-4.3036 3.6156-22.188-0.89697-10.659-3.3967-30.22-5.5548-43.469-2.1582-13.249-4.4717-45.199-5.1411-71l-1.2172-46.911 5.0771 8.8751c7.1956 12.578 15.858 35.878 14.022 37.714-0.85095 0.85095-2.6594-0.44019-4.0187-2.8693-1.3594-2.429-3.668-4.4163-5.1304-4.4163-3.1782 0-1.5089 18.353 5.6802 62.447 6.009 36.856 6.9532 70.703 2.3015 82.49-5.6453 14.305-14.88 22.42-25.512 22.42-8.989 0-26.943-8.1466-40.124-18.206-8.6071-6.5687-10.435-5.8082-10.435 4.3413 0 30.178 31.687 52.608 66.349 46.967 15.994-2.603 44.896-12.409 59.131-20.062 5.558-2.988 11.457-5.4327 13.108-5.4327 1.6515 0 9.4253-5.8698 17.275-13.044 15.87-14.504 16.333-17.5 6.0187-38.938-6.8446-14.227-9.7245-28.951-7.6314-39.016l1.7858-8.587 9.0092 11.123c13.462 16.62 13.985 17.943 6.3275 16.021-7.9646-1.999-7.9595-2.101-0.68359 13.603 4.7777 10.312 5.5852 15.235 4.346 26.494-1.9315 17.548-6.0936 23.752-25.9 38.605-19.868 14.899-21.197 17.159-17.448 29.674 6.9634 23.242 29.848 16.369 69.732-20.94 8.8164-8.2473 17.881-14.995 20.144-14.995 2.2628 0 4.1144-1.1411 4.1144-2.5358 0-1.3946 2.2148-2.5356 4.9218-2.5356 2.7069 0 5.5299-0.98413 6.2733-2.187 0.74341-1.2028 11.726-5.43 24.405-9.3939l23.054-7.207-1.6602-12.071c-3.0129-21.906 9.585-45.212 24.439-45.212 4.5505 0 8.8547 2.4065 12.473 6.9733 4.8638 6.1398 5.3818 9.2357 4.3335 25.902-1.1646 18.515-1.4221 19.128-11.777 28.046l-10.586 9.1176 6.8279 3.6504c3.7554 2.0077 12.452 3.5649 19.326 3.4607 10.598-0.16089 13.623-1.3931 19.895-8.1035 4.3816-4.6885 7.3962-10.698 7.3962-14.744 0-3.7565-3.3193-30.348-7.376-59.093-8.3953-59.487-12.999-100.73-11.728-105.08 3.8059-13.019 4.1169-12.842 14.146 8.0512 5.5166 11.493 10.005 23.414 9.9739 26.492l-0.0564 5.5955-4.6521-6.0503c-2.5588-3.3278-5.3118-4.9834-6.1177-3.6793-0.80591 1.3041 1.3359 21.713 4.7595 45.354 8.365 57.761 10.195 93.208 5.4873 106.29-4.6792 13.004-19.882 21.639-38.097 21.639-11.323 0-13.604-1.0265-22.867-10.289l-10.289-10.289-11.6 3.6992c-6.3799 2.0346-15.594 4.5143-20.475 5.5106-4.8811 0.99634-10.016 2.6721-11.411 3.7239-1.3945 1.0519-7.0144 3.3567-12.488 5.1218-6.4503 2.08-17.605 10.538-31.696 24.034-17.545 16.804-24.041 21.389-33.643 23.746-14.385 3.5316-14.122 3.5382-23.601-0.5929zm161.54-88.893c11.619-4.855 15.615-10.054 13.673-17.79-2.0923-8.3369-10.17-12.362-20.806-10.366-7.3577 1.3802-8.6082 2.6483-8.6082 8.7288 0 6.4241 4.5308 23.085 6.2778 23.085 0.39038 0 4.6487-1.6456 9.4626-3.657zm-435.2 79.936c-7.0404-7.3486-7.0566-7.4435-2.3761-13.867 2.5919-3.5571 5.5288-6.5033 6.5262-6.5471 0.99744-0.043823 5.8253 3.4428 10.729 7.748 8.7443 7.6775 8.8311 7.9435 4.5258 13.867-5.8373 8.0309-10.858 7.7202-19.405-1.2008zm32.79-0.3207l-7.5817-7.4301 6.7915-6.7915 6.7916-6.7916 9.0312 6.8884c9.2899 7.0857 11.322 13.468 5.9883 18.802-4.993 4.9932-12.963 3.22-21.021-4.677zm455.77 0.9365c7.1082-7.5845 9.4336-18.574 3.9304-18.574-2.2664 0-2.3098-0.73303-0.17041-2.8724 3.9824-3.9825 10.821-0.8313 10.821 4.9866 0 5.9091-8.6123 17.209-16.045 21.052-4.6753 2.4174-4.4536 1.7224 1.4644-4.5923zm-394.21-3.3428c1.7622-12.007-1.6188-24.49-8.3672-30.889-6.9475-6.5888-8.1809-12.234-2.6728-12.234 5.1658 0 14.176 13.598 15.851 23.924 1.5935 9.8198-0.90454 26.791-3.9436 26.791-1.0898 0-1.4804-3.4156-0.86755-7.5903zm436-9.5256c3.522-12.594 1.4175-67.195-3.885-100.8-13.23-83.832-16.503-135.66-8.5693-135.66 2.2478 0 20.86 38.02 20.792 42.473-0.07373 4.842-4.4045 3.7799-8.5146-2.088-2.0254-2.8917-4.3254-4.2175-5.1111-2.9463-1.5115 2.4454-0.80615 8.1361 9.9739 80.472 10.505 70.491 9.1985 125.52-2.9807 125.52-2.7698 0-3.1826-1.6891-1.7051-6.9731zm-287.01-48.812c2.114-21.178-1.4943-57.291-12.519-125.3-4.436-27.363-5.4893-69.953-1.7299-69.953 2.8037 0 17.505 26.5 19.694 35.5 1.4943 6.144 1.3873 6.2026-3.475 1.9019-10.69-9.4551-10.724-7.2022-0.81738 52.616 10.276 62.043 11.476 79.94 6.699 99.895-5.5707 23.271-9.9379 26.24-7.8513 5.3373zm-401.94 7.7629c-2.6543-4.9598 0.7251-19.315 5.7074-24.245 1.7235-1.7053 1.8986-0.87488 0.53467 2.5358-3.7159 9.2909-2.8807 17.777 1.7152 17.431 2.5049-0.18835 3.7205 1.0272 2.9736 2.9736-2.1331 5.5585-8.2626 6.29-10.931 1.3046zm496.52-8.1876c0.5542-5.812-0.38135-20.931-2.079-33.598-16.944-126.42-19.155-148.91-15.342-156.03l3.059-5.7158 3.9347 7.2343c9.9676 18.326 13.352 26.44 13.277 31.835-0.078247 5.6514-0.19263 5.6798-3.7773 0.94153-2.0332-2.6874-4.4326-4.1505-5.3319-3.2511-0.89941 0.89929 0.75671 18.503 3.6802 39.118 6.2555 44.114 9.2398 95.506 6.7178 115.69-2.0553 16.45-5.6603 19.741-4.1378 3.778zm-335.5-34.571c-1.2909-7.641-3.1766-10.223-9.0978-12.458-7.4174-2.7998-9.8948-9.0688-4.8226-12.204 3.7363-2.3092 9.4015 3.0454 14.427 13.637l4.3019 9.0657 4.0083-13.852c4.2413-14.658 10.513-18.376 16.089-9.5366 3.4515 5.4718 0.39416 8.7914-4.4183 4.7972-4.1111-3.4117-5.2075-2.1708-7.6309 8.6368-2.5168 11.224-6.937 21.554-9.2231 21.554-1.1028 0-2.7379-4.3375-3.6337-9.6389zm365.24 0.5828c-4.4578-4.4578-5.0608-7.7294-1.7969-9.7467 1.2034-0.74377 3.6421-6.5458 5.4192-12.894 3.8679-13.815 9.227-18.876 6.7214-6.348-1.3411 6.705-0.65772 9.1013 3.4077 11.949 6.6978 4.6913 6.4568 12.169-0.55054 17.077-7.019 4.9164-8.251 4.9128-13.201-0.037354zm13.025-7.7371c1.1565-3.4735-8.8259-6.4768-10.817-3.2544-2.1831 3.5321 1.4158 7.7413 5.8787 6.8755 2.1948-0.42578 4.4172-2.0553 4.9385-3.6211zm-491.49-2.1007c-1.9093-5.28-6.0895-10.57-9.733-12.316-6.7412-3.2311-9.7737-10.854-5.8704-14.758 3.2355-3.2355 11.085 4.5176 17.015 16.807l4.8947 10.143 1.8235-13.575c1.0029-7.4661 2.998-14.749 4.4338-16.185 3.2905-3.2905 10.192-0.77002 12.197 4.4542 2.146 5.5925-0.78748 7.6149-5.4423 3.7517-5.2261-4.3373-6.1775-2.9568-8.6226 12.511-2.8168 17.818-6.4434 20.927-10.696 9.1669zm275.77-24.672c-2.7802-5.8896-6.0436-9.5001-7.9321-8.7754-4.1609 1.5967-8.898-3.2065-8.898-9.0225 0-9.33 11.581-3.4606 18.513 9.3822l4.1056 7.6071 0.1016-7.1399c0.10852-7.6262 4.2026-17.094 8.6372-19.974 3.339-2.1685 9.2144 2.3971 9.2144 7.1602 0 2.8894-0.91589 2.9469-5.1488 0.32349-6.5083-4.0338-9.8888 0.36914-10.205 13.291-0.39062 15.973-3.1229 18.301-8.3877 7.1478zm-320.32-21.472c2.1914-2.1913 11.321-7.3424 21.064-11.884 10.351-4.8256 21.243-14.392 21.243-18.658 0-1.8594-1.3627-5.5629-3.0283-8.2299-2.3262-3.7247-2.3388-6.3627-0.054321-11.376 4.704-10.324 10.69-8.3833 10.69 3.4661 0 5.4962 1.1411 10.698 2.5356 11.56 1.3946 0.86194 2.5358 3.2882 2.5358 5.3918 0 2.6658-1.5306 3.339-5.0509 2.2218-3.7424-1.1879-5.7645-0.036987-7.8055 4.4426-1.7224 3.7803-9.8226 9.5431-21.616 15.379-18.165 8.9883-24.001 11.175-20.513 7.6873zm46.002-46.708c-2.1738-3.5172-3.6953-2.8613-3.6953 1.5926 0 2.1743 1.1597 3.2366 2.5772 2.3605 1.4174-0.87598 1.9205-2.6549 1.1182-3.9531zm215.61 46.144c-1.3784-1.3223-10.945-6.7288-21.26-12.014-24.024-12.311-43.461-31.419-31.96-31.419 2.0919 0 3.8035 1.458 3.8035 3.24 0 5.0743 18.039 18.438 41.583 30.806 13.989 7.3484 16.748 7.9023 16.716 3.3558-0.012207-1.7433-7.1439-7.6502-15.848-13.126-18.048-11.354-32.308-23.848-32.308-28.305 0-3.891 5.8937-6.1223 16.056-6.0785 12.105 0.052124 19.444 2.6534 19.444 6.892 0 3.2955-0.8291 3.2564-6.2501-0.29565-7.6903-5.0389-21.643-5.4802-21.643-0.68469 0 4.358 5.8832 9.6233 27.201 24.344 13.272 9.1647 17.174 13.265 17.174 18.044 0 6.5708-7.9183 9.837-12.708 5.2421zm299.63-4.3793c-5.4517-4.7378-6.8569-7.7421-5.727-12.244 2.2434-8.9393 7.5876-9.4644 16.931-1.6638l8.3901 7.0045-6.1851 6.5906-6.1848 6.5906-7.2246-6.2783zm28.279-0.1337c-6.3059-6.3059-6.481-7.092-2.8203-12.679 5.0715-7.7405 8.4876-7.5107 16.763 1.127 6.3347 6.6123 6.5254 7.4547 2.8662 12.679-5.1086 7.2937-8.6243 7.058-16.809-1.127zm-279.06-11.3c-6.2242-3.5278-5.5033-11.957 2.0371-23.817 3.5468-5.5785 5.791-7.7168 4.9873-4.7518-1.0924 4.0302-0.1189 5.7421 3.8562 6.7816 4.2489 1.1111 5.1549 3.0273 4.5085 9.5355-0.9729 9.7963-8.7696 16.003-15.389 12.252zm13.312-8.0953c0-4.2405-5.1417-9.3821-9.3822-9.3821-1.8257 0-3.2964 2.8282-3.2964 6.3392 0 5.0714 1.2678 6.3394 6.3392 6.3394 3.511 0 6.3394-1.4707 6.3394-3.2965zm108.24-3.8156c-3.7474-3.9115-6.7756-8.1906-6.7292-9.5089 0.093994-2.6738 8.877-13.808 10.892-13.808 0.70874 0 3.7754 4.0237 6.8148 8.9416 5.1928 8.4021 5.2782 9.3201 1.4161 15.214-2.2605 3.45-4.4408 6.2727-4.845 6.2727-0.40418 0-3.8012-3.2004-7.5487-7.1121zm102.22 2.4476c0-1.1708 2.5674-3.3014 5.7053-4.7346s9.5901-5.8954 14.338-9.916c29.109-24.649 32.65-28.864 24.252-28.864-6.002 0-7.27-6.9556-2.5747-14.121 2.8296-4.3186 6.0894-6.2122 9.7876-5.6858 4.6401 0.66052 5.498 2.3411 5.2559 10.298-0.15894 5.2299 0.69678 9.5089 1.9019 9.5089s2.1909 1.8337 2.1909 4.0748c0 2.7139-1.3716 3.5486-4.1062 2.4992-2.7961-1.073-8.0998 2.4812-16.623 11.139-6.884 6.9933-13.594 12.715-14.912 12.715-1.3174 0-4.6772 2.2821-7.4666 5.0714-2.7893 2.7893-6.7832 5.0714-8.875 5.0714-2.092 0-3.8037 1.1411-3.8037 2.5358 0 1.3945-1.1411 2.5356-2.5356 2.5356-1.3948 0-2.5356-0.95789-2.5356-2.1287zm53.25-50.699c0-6.4569-2.7063-8.5093-6.7712-5.1355-2.5945 2.1531-2.7305 3.698-0.55664 6.3173 4.0252 4.8501 7.3279 4.3176 7.3279-1.1818zm-629.7 20.708c-3.3852-3.3852-1.5236-12.485 4.5826-22.399 6.5836-10.689 8.8154-9.6016 2.6018 1.2678-5.3622 9.3804-4.7571 15.214 1.5785 15.214 4.4963 0 4.8624 0.62573 2.2252 3.8035-3.3306 4.0132-8.1596 4.9418-10.988 2.1132zm570.76-8.2965c-2.2251-5.6643-5.709-10.299-7.7424-10.299-5.2974 0-9.7494-6.2542-7.894-11.089 2.452-6.3899 5.4453-5.0008 13.659 6.3385 7.5442 10.414 8.0984 10.336 11.242-1.5884 0.73535-2.7893 0.81274 0.43115 0.17163 7.1565-1.7971 18.86-4.6336 21.71-9.437 9.4814zm-441.44 5.7607c-3.6279-3.6279-1.3763-11.085 5.2827-17.497 10.616-10.221 65.617-35.029 63.486-28.635-0.51453 1.5433-13.339 8.36-28.498 15.148-32.107 14.377-37.779 18.641-35.716 26.858 1.396 5.5618-0.97192 7.7073-4.5535 4.1257zm330.58-1.8944c2.0422-1.9718 7.7068-5.7831 12.588-8.4696 8.137-4.4785 8.8751-5.8491 8.8751-16.48 0-6.3777 0.80652-12.406 1.7924-13.397 3.4613-3.4786 9.6183 1.2667 9.6183 7.4131 0 3.4164 0.69263 8.0165 1.5392 10.222 1.0962 2.8564 0.037598 4.0109-3.6776 4.0109-2.8691 0-6.1292 1.5165-7.2445 3.3699-2.4487 4.0695-21.217 16.916-24.713 16.916-1.3699 0-0.8197-1.6133 1.2224-3.585zm29.07-31.915c-0.86194-1.3946-2.6409-2.5358-3.9532-2.5358s-2.386 1.1411-2.386 2.5358c0 1.3946 1.7789 2.5358 3.9531 2.5358 2.1743 0 3.248-1.1411 2.3861-2.5358zm-446.55 18.182c0.98621-1.5957 8.011-4.7089 15.611-6.9182 7.5995-2.2092 13.817-5.0552 13.817-6.3242 0-3.6473-11.826-5.6669-25.495-4.3536-6.8976 0.66284-12.541 0.5531-12.541-0.24377 0-2.8778 13.769-13.198 19.542-14.647 7.0482-1.7689 31.002 0.92175 36.066 4.0513 4.9777 3.0764-1.8563 13.243-14.548 21.642-10.164 6.7263-35.716 12.076-32.452 6.7936zm69.154-4.6584c-5.5159-5.5159 1.748-28.738 8.9893-28.738 1.5992 0 1.1258 1.8893-1.1118 4.4376-2.1431 2.4406-4.576 6.7196-5.4065 9.5089-1.8252 6.1305 1.7947 12.73 5.6689 10.336 1.7544-1.0842 2.2295-0.26355 1.28 2.2109-1.557 4.0576-6.4428 5.2219-9.4199 2.2448zm474.21-7.1659c-3.1846-2.3286-3.6765-3.8821-1.6304-5.1466 1.6118-0.99634 4.6423-0.099731 6.7344 1.9922 4.9446 4.9447 0.82568 7.4902-5.104 3.1544zm-82.592-28.67c-1.5446-2.8861-2.8082-5.6439-2.8082-6.1284 0-0.48462 7.7022-0.87317 17.116-0.86352 9.4138 0.009766 20.977-0.98315 25.697-2.2063 6.6848-1.7324 8.3348-1.4861 7.4678 1.1154-0.61218 1.8366-3.903 3.6606-7.3129 4.0536-26.149 3.0132-34.305 4.5546-35.722 6.751-0.91162 1.4133-2.866 0.21472-4.4375-2.7217z" fill="url(#w)" stroke="#ff7f00" stroke-linejoin="round"/>
  </g>
 </g>
 <g transform="matrix(.82288 0 0 1.0704 80.057 95.428)">
  <path d="m88 175.85c-5.3712-2.0875-8.1833-9.938-6.1707-17.227 1.1192-4.0535 0.15592-4.7139-3.3568-2.3015-1.0849 0.74506-5.7975 2.6514-10.472 4.2362-11.561 3.9191-22.424 4.0725-28.961 0.40912-8.355-4.682-11.352-12.746-9.1601-24.645 0.6374-3.4593 1.4559-7.092 1.819-8.0725 0.36426-0.98392-1.4102 0.10651-3.9596 2.4332-4.9738 4.5393-8.2932 5.8633-12.225 4.8764-7.1583-1.7966-8.9155-15.488-3.5841-27.926 1.7704-4.1301 1.7692-4.3216-0.041451-6.5576-5.4926-6.7831-4.6605-15.791 2.6424-28.606 4.9657-8.7137 5.2308-9.0762 6.0426-8.2644 0.3147 0.31473-0.55688 2.3608-1.9368 4.5468-3.0087 4.7662-7.1337 14.44-8.1146 19.03-1.0815 5.0611 1.0061 9.184 4.6503 9.184 1.6106 0 4.2808-0.6994 5.9339-1.5542 2.9782-1.5401 13.294-10.324 23.895-20.346l5.5-5.1999-3.5-2.9177c-1.925-1.6048-7.9938-5.9828-13.486-9.7288-11.002-7.5043-12.5-9.6892-10.947-15.975 0.86931-3.5193 1.6001-4.1166 10.674-8.7236l9.7405-4.9456-2.088-2.2225c-1.5892-1.6916-1.9299-2.9422-1.4262-5.2353 0.36394-1.657 1.1974-3.4574 1.8522-4.0008 3.8297-3.1784 43.11-17.054 44.459-15.706 1.085 1.085-1.2122 2.2095-12.278 6.01-12.263 4.2118-30.572 11.421-31.793 12.519-0.43636 0.39224 0.013641 2.2461 1 4.1198s1.8541 3.5424 1.9284 3.7083c0.074242 0.16589 6.1492-1.7346 13.5-4.2233 17.347-5.8732 39.744-11.578 45.454-11.578 3.4953 0 5.074 0.57159 7.0579 2.5554 2.1712 2.1712 2.4524 3.111 1.8703 6.25-0.79457 4.2848-4.1627 9.0421-9.9368 14.035-2.244 1.9404-7.1781 6.7076-10.965 10.594l-6.8848 7.0658 2.5493-5c3.058-5.9976 7.1041-10.426 15.47-16.934 3.4375-2.6737 6.25-5.4698 6.25-6.2137 0-2.9754-3.887-5.3525-8.75-5.3512-9.9056 0.002716-39.103 8.6207-60.75 17.931-15.847 6.8158-16.175 7.1851-9.4198 10.608 6.3798 3.2329 25.701 15.043 28.153 17.209 1.5646 1.3816 2.2357 1.3222 6.8834-0.60922 2.8324-1.1771 5.8172-2.1401 6.633-2.1401 1.1035 0 1.3226-0.70401 0.8557-2.75-0.34514-1.5125-1.254-6.575-2.0197-11.25-0.76569-4.675-1.6538-9.625-1.9737-11-0.31984-1.375-0.2352-4.0618 0.18808-5.9706l0.7696-3.4706 3.715 5.9393c3.9527 6.3192 4.968 9.7866 2.1909 7.4818-2.4365-2.0221-2.9041-0.38464-1.7154 6.0075 1.614 8.6791 3.1397 11.195 8.4984 14.013 5.0999 2.6818 6.1797 4.4044 5.2023 8.2988-0.5954 2.3722-0.73465 2.4115-3.5585 1.0028-3.4115-1.7019-12.78-2.0294-15.441-0.53989-1.6232 0.90839-1.2889 1.396 3.0035 4.3802 2.6565 1.8469 10.276 7.266 16.933 12.042 11.846 8.5005 12.11 8.6285 12.438 6.0518 0.18455-1.4478-0.1567-12.464-0.75835-24.479-0.91901-18.354-0.8697-22.275 0.30846-24.523l1.4024-2.6765 1.6869 3.9715c5.8529 13.78 6.6618 18.138 2.4806 13.363l-2.0945-2.3916 0.5857 15.5c0.32211 8.525 0.86797 18.336 1.213 21.803 0.60397 6.0679 0.76963 6.3755 4.444 8.25 4.5515 2.322 7.7559 2.4504 12.428 0.49814 3.3697-1.408 3.4679-1.607 3.4679-7.0284 0-3.0687-0.64444-11.979-1.4321-19.801-0.78766-7.8219-1.9428-21.422-2.567-30.222-0.62418-8.8-1.5346-19.961-2.0232-24.802-0.60391-5.9838-0.54159-9.6662 0.19463-11.5 1.056-2.6302 1.179-2.4977 4.9254 5.3024 2.1133 4.4 3.8397 8.9 3.8364 10-0.005234 1.74-0.33717 1.61-2.5536-1l-2.5476-3 0.575 6.5c0.31626 3.575 1.7271 19.418 3.1352 35.208 3.2523 36.469 2.4503 43.159-5.6783 47.362-3.1061 1.6063-8.61 1.5683-13.729-0.094696-2.0108-0.65329-2.2809-0.48477-1.8083 1.1284 0.30558 1.043 0.85197 6.8464 1.2142 12.896 0.68174 11.387-0.50073 23.962-2.7783 29.544-1.1009 2.6985-1.2638 1.1873-1.2638-11.723 0-8.1516-0.38111-19.663-0.84692-25.581l-0.8469-10.76-6.8251-5.2399c-3.7538-2.8819-11.36-8.7535-16.903-13.048-5.5429-4.2944-10.078-7.5501-10.078-7.2349 0 0.31528 1.4464 3.1361 3.2143 6.2686 2.4606 4.36 3.2082 6.877 3.1881 10.735-0.049576 9.5474-4.2846 14.011-16.113 16.982-7.8325 1.9674-16.783 6.3481-20.979 10.268-5.6362 5.265-6.8385 19.462-2.2736 26.848 5.0776 8.2158 20.334 10.416 34.804 5.0204 12.885-4.8051 24.16-12.249 24.16-15.951 0-1.2485-1.8371-7.1449-4.0824-13.103-3.2414-8.6016-3.9424-11.574-3.4028-14.429l0.6796-3.5958 4.3822 5c4.8455 5.5287 5.42 6.9511 2.4233 6-2.2794-0.72348-2.4708 0.18109-0.88516 4.1849 5.1218 12.933 4.3215 19.763-3.1333 26.736-5.192 4.8566-6.9661 8.9699-6.9759 16.174-0.006119 4.4907 2.2266 7.405 5.6731 7.405 3.207 0 9.7793-5.3708 16.312-13.33 7.1718-8.7382 11.801-12.171 22.51-16.693 4.4-1.8581 8.391-3.7015 8.8688-4.0965 0.47784-0.39496 0.96704-3.7922 1.0871-7.5493 0.24106-7.5436 2.1982-12.403 5.9978-14.893 1.8508-1.2126 2.883-1.3285 4.4354-0.49765 1.8761 1.0041 4.0922 6.4732 4.1052 10.131 0.013474 3.8001-3.4235 11.636-6.1698 14.066l-2.9811 2.6382 2.2668 2.1118c2.8488 2.654 5.129 2.6585 10.578 0.020813 2.7414-1.3271 4.5352-2.9502 4.9098-4.4427 0.32463-1.2934 0.10002-10.59-0.49913-20.659-0.97261-16.346-4.7911-76.427-5.2627-82.807-0.10167-1.375 0.16757-4.0224 0.5983-5.8832 0.9333-4.0319 1.2922-3.6024 5.6242 6.7304 3.2992 7.8693 3.2658 9.8933-0.099838 6.0444l-2.0914-2.3916 0.554 7.5c0.3047 4.125 1.0324 14.7 1.6172 23.5 0.58473 8.8 1.2602 17.125 1.5011 18.5 1.2881 7.3535 1.6478 41.915 0.49434 47.5-1.9479 9.4323-7.948 15.5-15.327 15.5-2.6182 0-6.1104-3.2928-7.1589-6.75-0.91025-3.0016-1.9653-2.8733-11.713 1.4247-10.938 4.8227-17.512 9.7742-24.343 18.336-7.5426 9.4532-11.49 11.816-16.491 9.8722zm58.015-42.549c2.6651-2.2425 3.0726-3.1457 2.5648-5.6844-0.92426-4.6212-3.3433-6.842-5.9558-5.4676-3.0938 1.6277-3.6588 2.9031-3.0203 6.8182 1.3177 8.0796 1.6736 8.3202 6.4112 4.3339zm-123.4-5.9466c2.1392-1.437 6.8184-5.4244 10.398-8.8608 7.7642-7.4534 13.59-10.575 26.334-14.11 9.137-2.5348 13.658-5.0926 13.658-7.7277 0-2.4683-7.3983-13.656-12.08-18.267l-4.8011-4.7289-2.8094 1.8265c-1.5452 1.0046-7.56 6.2438-13.366 11.643-13.192 12.266-17.605 15.619-21.593 16.404-2.7763 0.54645-3.4138 1.3441-5.3767 6.7277-2.589 7.1007-3.109 15.624-1.1011 18.05 1.9984 2.4137 6.2914 2.0319 10.738-0.95505zm4.0562-12.054c-1.2087-1.2087-0.69457-8.0223 0.89191-11.819 0.85722-2.0516 1.7631-3.5257 2.0131-3.2757s-0.27941 2.2112-1.1765 4.3581c-0.89705 2.147-1.5602 4.0796-1.4736 4.2946 0.086548 0.21512 0.64883 1.3088 1.2495 2.4302 1.0603 1.9797 1.132 1.9846 2.4605 0.16776 1.6738-2.289 1.7627-1.4487 0.20784 1.9639-1.1282 2.4761-2.8164 3.2368-4.1728 1.8804zm17.818-17.441c-1.6414-1.2454-3.1328-2.3666-3.3142-2.4915-0.63898-0.43997 3.0724-5.4007 4.0405-5.4007 0.53934 0 2.2482 0.90256 3.7974 2.0057l2.8168 2.0057 1.9668-2.6999c1.9354-2.6569 2.0094-2.672 4.6413-0.94745 3.6135 2.3676 4.0836 4.0749 1.9141 6.951l-1.8263 2.4211-3.2277-2.4619-3.2277-2.4619-2.2984 2.672-2.2984 2.672-2.9843-2.2643zm66.327 76.454c2.6286-3.7878 2.9089-6.5591 0.57274-5.6626-1.3768 0.52829-1.4457 0.3013-0.46482-1.5314 2.402-4.4882 5.1452-1.1348 3.1036 3.794-0.66289 1.6004-2.1492 3.7298-3.303 4.7321-2.0394 1.7716-2.0368 1.7346 0.091377-1.3321zm17.658-5.5206c-1.353-2.8306-2.8556-4.4423-4.5-4.8268-2.8369-0.66333-4.2944-5.9981-1.6388-5.9981 1.5543 0 7.67 6.4066 7.67 8.0348 0 0.53085 0.45 0.96521 1 0.96521s1.0017-1.0125 1.0037-2.25c0.004044-2.4361 3.4544-8.75 4.7816-8.75 1.599 0 3.2147 2.4401 3.2147 4.855 0 2.4012-0.044342 2.4149-2.0236 0.62363-2.5822-2.3368-3.4519-1.447-5.697 5.8294l-1.7793 5.7666-2.0312-4.2496zm-107.05-20.665c2.0275-3.9207 2.013-6.1597-0.039841-6.1597-1.3288 0-1.3971-0.27152-0.37756-1.5 1.4242-1.7161 3.5956-1.9634 4.4929-0.51154 0.73634 1.1914-2.7759 9.4504-4.4622 10.492-0.72757 0.44968-0.57614-0.45938 0.38668-2.3213zm24.444-3.9097c-0.787-1.9868-0.78422-4.2574 0.009998-8.1814 0.60463-2.9873 0.90018-5.6306 0.65677-5.874-0.2434-0.24341-2.0368 0.49805-3.9852 1.6477-2.6908 1.5876-3.5427 1.7557-3.5427 0.69913 0-0.76511 4.1478-3.7874 9.2174-6.7163 11.24-6.4935 10.924-6.3574 10.166-4.3822-0.33981 0.88553-2.5193 2.7244-4.8432 4.0863-3.1801 1.8637-4.5117 3.4319-5.3828 6.3395-1.4572 4.8635-1.4642 7.6896-0.025833 10.377 1.0959 2.0476 1.1749 2.0553 2.5 0.24313 1.6139-2.2071 1.7382-1.592 0.39311 1.9458-1.2775 3.3601-3.795 3.27-5.1636-0.18488zm17.673-7.6335c-2.6939-2.1551-2.8564-2.6134-1.7714-4.9947 1.4114-3.0978 2.8549-3.2556 6.2083-0.67874 2.1216 1.6303 2.3336 2.287 1.5 4.6461-1.2936 3.6607-2.4049 3.853-5.9369 1.0274zm14.405-0.7309c-1.3582-2.5378-0.4754-9.337 1.673-12.886l1.5135-2.5-0.6016 2.5c-1.6184 6.7257-1.719 9.0598-0.45583 10.582 1.2097 1.4576 1.4419 1.4414 2.6295-0.18265 1.5514-2.1217 1.6574-1.4626 0.32736 2.0357-1.1835 3.1128-3.5491 3.3224-5.086 0.45074zm38.128-3.01c0.55209-1.0316 1.5077-1.8756 2.1236-1.8756 0.61589 0 0.31575-0.88849-0.66698-1.9744-1.67-1.8453-1.6792-2.1386-0.14107-4.486 2.2067-3.3679 6.236-5.9 8.1933-5.149 2.4364 0.93491 1.0421 3.1442-1.7942 2.8429-1.3799-0.14661-3.0912 0.435-3.8027 1.2924-2.1118 2.5446 0.34624 3.9319 6.5097 3.674 4.5217-0.18921 5.3601 0.031738 4.8789 1.2858-0.31961 0.83289-1.5455 1.525-2.7241 1.538-1.1786 0.013062-4.7164 1.0821-7.8616 2.3756-5.259 2.1628-5.6379 2.2011-4.7148 0.47629zm55.773-9.6043c0.18666-6.3478-0.39932-23.518-1.3022-38.156-2.0962-33.986-2.2028-38.849-0.88005-40.172 0.77841-0.77841 2.1121 1.3725 4.733 7.6336 3.7364 8.9258 3.957 11.825 0.56368 7.4086l-1.9094-2.485-0.0143 4c-0.007858 2.2 0.65077 13 1.4636 24 1.9018 25.736 1.8967 36.822-0.019745 43.276-0.83929 2.8262-1.8518 5.3408-2.25 5.5879-0.39821 0.24713-0.5713-4.7443-0.38464-11.092zm-109.8-0.9623c0.019711-0.44495 3.3604-3.4522 7.4238-6.6828s8.8727-7.4056 10.687-9.2778c2.8593-2.95 3.1362-3.6653 2.0762-5.3627-1.6395-2.6253-1.544-5.4746 0.23304-6.9494 2.0393-1.6925 3.5438-0.4343 3.5438 2.9636 0 1.585 0.45 3.1601 1 3.5 1.8026 1.114 1.1459 3.6811-0.78491 3.0683-1.2573-0.39908-2.3053 0.31439-3.5454 2.4138-2.2298 3.7748-20.726 18.41-20.634 16.327zm22.464-25.309c-0.33992-0.55002-1.0415-1-1.559-1-0.51754 0-0.94098 0.44998-0.94098 1 0 0.54999 0.70156 1 1.559 1 0.85746 0 1.2809-0.45001 0.94098-1zm44.25 17.821c3.2148-1.6092 2.7787-3.1252-0.75-2.6073-3.3653 0.49393-3.9634-0.62732-1.1406-2.1381 1.9477-1.0424 9.1406-0.33365 9.1406 0.9006 0 1.3881-3.5384 3.7633-6.5 4.3632-2.7386 0.55481-2.804 0.50961-0.75-0.51849zm-126.34-7.2487c3.0197-5.1528 3.1021-5.5719 1.095-5.5719-1.9056 0-1.9263-1.4013-0.043808-2.9636 1.7679-1.4672 3.5438-0.55176 3.5438 1.8269 0 1.8214-5.498 11.137-6.573 11.137-0.33937 0 0.55072-1.9926 1.978-4.4281zm135.77-0.8822l-2.2217-2.3648 2.1423-2.7235 2.1423-2.7235 2.3794 2.2353 2.3794 2.2354 2.5449-2.3908c2.7007-2.5372 4.6683-2.1522 6.8744 1.3452 0.81415 1.2907 0.56624 2.156-1.0931 3.8154l-2.1461 2.1461-2.9175-2.0774-2.9175-2.0775-2.4725 2.4725-2.4725 2.4726-2.2217-2.3649h-1.5e-5zm3.0972-19.333c-0.12349-5.3014-0.49115-9.9055-0.81702-10.231-0.32582-0.32584-2.3623 0.42615-4.5254 1.6711-5.4316 3.126-4.9634 1.357 0.56534-2.1358 3.5125-2.219 4.3998-3.3118 4.0601-5-0.23908-1.1882-0.70462-7.1104-1.0345-13.16-0.32991-6.05-1.0305-17.456-1.5569-25.346-0.89557-13.424-0.62801-19.17 0.89146-19.143 0.65509 0.011322 5.3001 10.47 6.6568 14.989 0.74791 2.491 0.74292 2.4931-1.3884 0.58945-1.1765-1.0508-2.3049-1.7258-2.5077-1.5-0.20276 0.2258 0.012833 4.9106 0.4791 10.411 0.46625 5.5 1.1227 14.275 1.4588 19.5 0.79065 12.292 0.94577 12.76 3.472 10.474 1.7823-1.6129 1.8317-1.9703 0.47917-3.4648-0.82945-0.91653-1.5081-2.3488-1.5081-3.1827 0-2.0034 3.5894-5.198 4.9179-4.377 1.2764 0.78888 1.1871 10.551-0.096542 10.551-0.50453 0-2.0065 1.2375-3.3377 2.75-2.0345 2.3115-2.4255 3.8141-2.4521 9.4237-0.031174 6.5857-1.8292 16.828-2.9533 16.824-0.31805-0.001282-0.67931-4.3398-0.80283-9.6412zm9.0862-25.856c-0.60861-1.586-2.3616-2.0808-2.3616-0.66669 0 1.0575 1.0931 2.1667 2.1353 2.1667 0.44107 0 0.54294-0.67502 0.22636-1.5zm29.073 33.394c-1.8859-3.0515 1.1212-17.894 3.6254-17.894 0.46338 0-0.025589 1.9125-1.0866 4.25-2.151 4.7388-2.4239 7.5166-0.95775 9.75 0.87526 1.3333 1.0941 1.3333 1.9694 0 1.2652-1.9273 1.2832-0.83472 0.04007 2.4349-1.0319 2.7141-2.4568 3.2931-3.5904 1.4589zm-65.459-6.4589c-0.53638-1.4108-0.97525-2.9689-0.97525-3.4625 0-1.6734 4.1923-12.114 4.6717-11.634 0.26199 0.26199-0.30994 2.6902-1.271 5.3962-1.8704 5.2662-1.3678 8.8506 1.1077 7.9006 1.7915-0.68747 1.9899 1.4665 0.29156 3.1649-1.8045 1.8045-2.7476 1.4679-3.8248-1.3651zm-22.946-7.3811c-1.2053-2.2521 1.1336-10.547 3.6808-13.054 1.3628-1.3413 1.3943-1.2472 0.29748 0.88937-2.3059 4.4919-3.0278 8.3806-1.8249 9.8301 0.92696 1.1169 1.2958 1.1315 1.9643 0.07782 0.63525-1.0014 0.82645-0.94379 0.83827 0.25269 0.016037 1.6234-1.839 3.95-3.1495 3.95-0.42065 0-1.2335-0.87582-1.8064-1.9462zm-62.546-1.4403c-1.5186-2.3177-1.5247-2.9463-0.075932-7.8169 0.86651-2.9131 2.0226-5.9716 2.5692-6.7966 1.3263-2.0021 1.262-1.3543-0.41415 4.1686-1.9614 6.4631-0.77435 10.644 2.1825 7.6874 0.85873-0.85873 1.0064-0.61749 0.59194 0.96726-1.007 3.8509-3.0175 4.5925-4.8536 1.7903zm-28.482-5.5016c0-0.50699 2.1091-2.1578 4.6869-3.6685s6.6376-4.5447 9.0217-6.7423c4.169-3.8429 4.2683-4.0691 2.5963-5.9167-1.5745-1.7398-1.5969-2.1733-0.23729-4.5956 0.82566-1.471 2.2732-2.8233 3.2168-3.005 1.3581-0.26154 1.7156 0.40204 1.7156 3.1839 0 1.9329 0.45001 3.7924 1 4.1324 1.6173 0.99951 1.1529 3.678-0.57626 3.3233-0.86695-0.17783-3.7722 1.7966-6.4562 4.3876-4.8202 4.6533-14.968 10.688-14.968 8.9009zm18.604-20.841c-1.0165-1.0165-1.8553 0.51388-1.0212 1.8634 0.63003 1.0194 0.86558 1.0202 1.2043 0.004059 0.2316-0.69479 0.14921-1.5351-0.18307-1.8674zm-10.935 7.0647c-1.0362-1.0362-0.78873-6.1434 0.33115-6.8355 0.5717-0.35333 1 0.53043 1 2.0634 0 2.2701 0.23009 2.4905 1.5 1.4366 0.825-0.68469 1.5-0.80954 1.5-0.27744 0 1.428-3.5526 4.3915-4.3312 3.613zm46.356-7.2759c-1.1815-2.8523-5.0247-7.1296-5.0247-5.5921 0 0.42758-0.67499 0.21722-1.5-0.46744-2.003-1.6624-1.9261-5 0.11513-5 0.88832 0 3.0974 1.6183 4.9091 3.5962l3.294 3.5962 1.1582-5.5788c1.2899-6.2134 2.6923-7.7872 4.6066-5.1692 1.5335 2.0972 0.73143 5.27-0.9158 3.6228-1.9601-1.9601-2.4044-1.1121-3.0963 5.9098-0.77693 7.8847-1.7863 9.3314-3.5462 5.0826zm58.029-5.9591c-1.1815-2.2076-0.20513-8.3734 1.8497-11.681 1.0616-1.709 1.1098-1.6454 0.44076 0.58099-1.3879 4.6184-1.0031 8.5119 0.82761 8.3741 1.286-0.096802 1.4947 0.35294 0.9045 1.9485-1.059 2.8627-2.7335 3.1865-4.0226 0.7778zm18.122-0.3242c-1.519-1.519-1.3814-5.3657 0.34975-9.7762l1.3738-3.5-0.5716 4.2117c-0.68985 5.0835 0.25871 8.5556 1.7103 6.2602 0.79649-1.2595 0.93312-1.237 0.94621 0.15558 0.02301 2.4454-2.3567 4.1004-3.8085 2.6486zm-45.172-10.769c-0.82433-1.5403-0.58055-3.1214 1.0744-6.9685 1.1774-2.7369 2.7664-5.4954 3.5311-6.1301 1.959-1.6258 1.7416-0.73157-0.99191 4.0809-2.5382 4.4686-2.5353 9.0164 0.004456 6.9087 1.6373-1.3589 1.7724-0.50442 0.34268 2.1671-1.3238 2.4736-2.6159 2.4546-3.9607-0.058105zm-61.346-1.683c-1.1988-1.1988-0.68209-7.3774 0.86769-10.374 2.2044-4.2628 2.7277-3.6242 0.85846 1.0476-1.6081 4.0191-1.2669 7.6656 0.6088 6.5064 0.55389-0.34232 1.0071-0.20096 1.0071 0.31415 0 1.3564-2.5669 3.2813-3.342 2.5061zm80.592-28.624c4.1736-1.6492 3.3074-3.0374-1.5-2.404l-4.25 0.5599 2.3608-1.9282c3.4541-2.8212 10.139-2.3906 10.139 0.65311 0 1.6063-5.1059 4.4657-7.7003 4.3123-1.2557-0.074249-0.96844-0.43484 0.95034-1.193z" fill="url(#v)" stroke="#d0dd68"/>
 </g>
</svg>
